<svg width="36" height="29" viewBox="0 0 36 29" fill="none" xmlns="http://www.w3.org/2000/svg">
<path d="M19.7128 0.0317745C17.843 0.257596 16.2219 1.56331 15.5358 3.40462C15.3116 3.99813 15.2077 4.53952 15.1831 5.2112C15.1093 7.35071 16.2274 9.31073 18.059 10.2488C20.7106 11.6066 23.9008 10.2951 24.997 7.39703C25.6695 5.61652 25.4043 3.61597 24.289 2.08154C23.2365 0.63107 21.4378 -0.173781 19.7128 0.0317745Z" fill="#879ABF"/>
<path d="M8.32687 6.73417C7.41657 6.83261 6.75502 7.02658 6.04975 7.39716C4.54078 8.19043 3.45552 9.51641 2.91699 11.2159C2.55615 12.3623 2.52335 13.7549 2.82952 14.9448C3.30517 16.7832 4.51071 18.3061 6.13449 19.1225C7.03932 19.5771 7.92502 19.771 8.96381 19.7363C9.516 19.7189 9.81397 19.6755 10.3197 19.5394C11.61 19.1949 12.8018 18.364 13.6356 17.2262C14.2753 16.3519 14.7017 15.2922 14.863 14.1573C14.9231 13.752 14.9313 12.7937 14.8794 12.4058C14.7236 11.2564 14.3354 10.2489 13.6875 9.32244C13.4415 8.96923 12.8018 8.29176 12.4683 8.0283C11.6318 7.374 10.6887 6.9542 9.67729 6.78918C9.40119 6.74575 8.54829 6.71101 8.32687 6.73417Z" fill="#879ABF"/>
<path d="M27.5541 11.5693C26.3841 11.7199 25.4328 12.1976 24.6318 13.0343C23.4099 14.3168 22.9315 16.1813 23.3716 17.9445C24.0331 20.5791 26.5481 22.2033 29.0549 21.6097C31.3238 21.0712 32.9094 18.9086 32.8219 16.4737C32.7809 15.3938 32.472 14.4529 31.876 13.6046C31.1407 12.5595 30.0718 11.8617 28.8389 11.6214C28.6148 11.578 27.7564 11.5433 27.5541 11.5693Z" fill="#879ABF"/>
<path d="M16.7731 11.9048C17.0055 13.3813 16.8306 15.0692 16.3057 16.4733C16.1417 16.9105 15.8273 17.5706 15.5977 17.9498C15.4992 18.1178 15.4118 18.2654 15.4063 18.2828C15.3981 18.303 16.4752 18.3088 18.6129 18.303C20.3844 18.3002 21.8305 18.2857 21.8305 18.2741C21.8277 18.2625 21.8113 18.1815 21.7922 18.0946C21.6692 17.4779 21.62 16.5602 21.6801 15.9493C21.8004 14.7188 22.2214 13.5318 22.872 12.5967C22.9431 12.4954 22.995 12.4085 22.9868 12.4027C22.9814 12.3969 22.8857 12.4346 22.7736 12.4896C22.3061 12.7183 21.6665 12.9065 21.1088 12.9875C20.696 13.0454 19.9278 13.0426 19.5342 12.9847C18.5911 12.8457 17.6999 12.478 16.929 11.9077L16.754 11.7803L16.7731 11.9048Z" fill="#879ABF"/>
<path d="M2.8594 19.447C2.67624 19.4933 2.28806 19.6496 2.07757 19.7596C1.714 19.9507 1.44337 20.1563 1.1454 20.4632C0.825562 20.7932 0.590468 21.1319 0.399113 21.5546C0.23236 21.9165 0.161285 22.1337 0.0765422 22.5245C0.0218692 22.7938 0.0191355 22.8661 0.0109346 25.8163L0 28.8359H8.84609H17.6894V25.9582C17.6894 23.173 17.6812 22.8661 17.6047 22.4811C17.5036 21.9831 17.2603 21.4041 16.9787 20.9843C16.7709 20.6774 16.3554 20.2431 16.0684 20.0376C15.6884 19.7683 15.1116 19.4991 14.7918 19.4441C14.7016 19.4267 14.6879 19.4354 14.5758 19.5859C14.2232 20.0578 13.6054 20.6571 13.0696 21.0538C12.1292 21.7428 11.0576 22.1974 9.91221 22.3855C9.60057 22.4377 9.40649 22.4492 8.87342 22.4492C8.18728 22.4521 7.94672 22.429 7.38359 22.3074C5.8172 21.9686 4.3383 21.0335 3.25304 19.6959C3.03162 19.4238 3.00701 19.4093 2.8594 19.447Z" fill="#879ABF"/>
<path d="M23.1792 21.572C22.2771 21.8934 21.5718 22.6635 21.3121 23.6102C21.1863 24.0647 21.1836 24.0966 21.1836 26.5198V28.8215L28.0943 28.8301L35.0049 28.8359L34.994 26.4417C34.983 23.7926 34.9912 23.9316 34.8026 23.3931C34.7507 23.2512 34.6495 23.0283 34.5757 22.898C34.4144 22.6143 34.0563 22.2032 33.7939 22.0005C33.5588 21.821 33.1761 21.6212 32.8891 21.5344L32.6731 21.4707L32.5774 21.5981C32.4244 21.8007 31.9214 22.3219 31.7054 22.5014C30.9318 23.1499 30.0023 23.5899 29.0292 23.7723C28.5672 23.8592 27.6842 23.8679 27.2496 23.7897C25.9483 23.5581 24.8412 22.9356 23.9254 21.9223C23.7778 21.7602 23.6384 21.5952 23.6138 21.5546C23.5564 21.4591 23.4826 21.462 23.1792 21.572Z" fill="#879ABF"/>
</svg>
