<svg width="36" height="29" viewBox="0 0 36 29" fill="none" xmlns="http://www.w3.org/2000/svg">
<path d="M19.7128 0.866969C17.843 1.08624 16.2219 2.35411 15.5358 4.14204C15.3116 4.71834 15.2077 5.24404 15.1831 5.89625C15.1093 7.97374 16.2274 9.87694 18.059 10.7878C20.7106 12.1062 23.9008 10.8328 24.997 8.01872C25.6695 6.28982 25.4043 4.34726 24.289 2.85731C23.2365 1.44889 21.4378 0.667372 19.7128 0.866969Z" fill="#2A488D"/>
<path d="M8.32687 7.37487C7.41657 7.47046 6.75502 7.65881 6.04975 8.01864C4.54078 8.78892 3.45552 10.0765 2.91699 11.7266C2.55615 12.8399 2.52335 14.1921 2.82952 15.3475C3.30517 17.1326 4.51071 18.6113 6.13449 19.4041C7.03932 19.8455 7.92502 20.0338 8.96381 20.0001C9.516 19.9832 9.81397 19.941 10.3197 19.8089C11.61 19.4744 12.8018 18.6676 13.6356 17.5627C14.2753 16.7138 14.7017 15.6848 14.863 14.5829C14.9231 14.1893 14.9313 13.2588 14.8794 12.8821C14.7236 11.766 14.3354 10.7877 13.6875 9.88811C13.4415 9.54514 12.8018 8.88731 12.4683 8.63149C11.6318 7.99616 10.6887 7.58853 9.67729 7.42829C9.40119 7.38612 8.54829 7.35239 8.32687 7.37487Z" fill="#2A488D"/>
<path d="M27.5541 12.07C26.3841 12.2162 25.4328 12.68 24.6318 13.4925C23.4099 14.7378 22.9315 16.5483 23.3716 18.2603C24.0331 20.8185 26.5481 22.3956 29.0549 21.8193C31.3238 21.2965 32.9094 19.1965 32.8219 16.8322C32.7809 15.7836 32.472 14.87 31.876 14.0463C31.1407 13.0314 30.0718 12.3539 28.8389 12.1206C28.6148 12.0784 27.7564 12.0447 27.5541 12.07Z" fill="#2A488D"/>
<path d="M16.7731 12.3955C17.0055 13.8292 16.8306 15.4681 16.3057 16.8316C16.1417 17.2561 15.8273 17.897 15.5977 18.2653C15.4992 18.4284 15.4118 18.5717 15.4063 18.5886C15.3981 18.6083 16.4752 18.6139 18.6129 18.6083C20.3844 18.6055 21.8305 18.5914 21.8305 18.5802C21.8277 18.5689 21.8113 18.4902 21.7922 18.4059C21.6692 17.8071 21.62 16.9159 21.6801 16.3228C21.8004 15.128 22.2214 13.9754 22.872 13.0674C22.9431 12.969 22.995 12.8846 22.9868 12.879C22.9814 12.8734 22.8857 12.9099 22.7736 12.9633C22.3061 13.1854 21.6665 13.3682 21.1088 13.4469C20.696 13.5031 19.9278 13.5003 19.5342 13.4441C18.5911 13.3091 17.6999 12.9521 16.929 12.3983L16.754 12.2746L16.7731 12.3955Z" fill="#2A488D"/>
<path d="M2.8594 19.7191C2.67624 19.7641 2.28806 19.9159 2.07757 20.0228C1.714 20.2083 1.44337 20.4079 1.1454 20.7059C0.825562 21.0264 0.590468 21.3553 0.399113 21.7657C0.23236 22.1171 0.161285 22.328 0.0765422 22.7075C0.0218692 22.9689 0.0191355 23.0392 0.0109346 25.9038L0 28.8359H8.84609H17.6894V26.0416C17.6894 23.3372 17.6812 23.0392 17.6047 22.6653C17.5036 22.1818 17.2603 21.6195 16.9787 21.2119C16.7709 20.9139 16.3554 20.4922 16.0684 20.2926C15.6884 20.0312 15.1116 19.7697 14.7918 19.7163C14.7016 19.6995 14.6879 19.7079 14.5758 19.8541C14.2232 20.3123 13.6054 20.8942 13.0696 21.2794C12.1292 21.9484 11.0576 22.3898 9.91221 22.5725C9.60057 22.6231 9.40649 22.6344 8.87342 22.6344C8.18728 22.6372 7.94672 22.6147 7.38359 22.4966C5.8172 22.1677 4.3383 21.2597 3.25304 19.9609C3.03162 19.6967 3.00701 19.6826 2.8594 19.7191Z" fill="#2A488D"/>
<path d="M23.1792 21.7826C22.2771 22.0946 21.5718 22.8424 21.3121 23.7617C21.1863 24.203 21.1836 24.234 21.1836 26.587V28.8219L28.0943 28.8303L35.0049 28.8359L34.994 26.5111C34.983 23.9388 34.9912 24.0737 34.8026 23.5508C34.7507 23.4131 34.6495 23.1966 34.5757 23.0701C34.4144 22.7946 34.0563 22.3954 33.7939 22.1987C33.5588 22.0244 33.1761 21.8304 32.8891 21.746L32.6731 21.6842L32.5774 21.8079C32.4244 22.0047 31.9214 22.5107 31.7054 22.685C30.9318 23.3147 30.0023 23.742 29.0292 23.9191C28.5672 24.0035 27.6842 24.0119 27.2496 23.936C25.9483 23.7111 24.8412 23.1067 23.9254 22.1227C23.7778 21.9653 23.6384 21.8051 23.6138 21.7657C23.5564 21.673 23.4826 21.6758 23.1792 21.7826Z" fill="#2A488D"/>
</svg>
