<svg width="128" height="128" viewBox="0 0 128 128" fill="none" xmlns="http://www.w3.org/2000/svg">
<circle cx="64" cy="64" r="59" stroke="white" stroke-width="10"/>
<path d="M58.8 74.9C58.8 72.5667 59.1667 70.5 59.9 68.7C60.7 66.9 61.6667 65.3 62.8 63.9C64 62.5 65.2667 61.2 66.6 60C67.9333 58.8 69.1667 57.6667 70.3 56.6C71.5 55.4667 72.4667 54.3 73.2 53.1C74 51.9 74.4 50.5667 74.4 49.1C74.4 46.7 73.4 44.7667 71.4 43.3C69.4667 41.8333 66.8667 41.1 63.6 41.1C60.4667 41.1 57.6667 41.7667 55.2 43.1C52.7333 44.3667 50.7 46.1667 49.1 48.5L37 41.4C39.6667 37.3333 43.3667 34.1 48.1 31.7C52.8333 29.2333 58.5667 28 65.3 28C70.3 28 74.7 28.7333 78.5 30.2C82.3 31.6 85.2667 33.6667 87.4 36.4C89.6 39.1333 90.7 42.5 90.7 46.5C90.7 49.1 90.3 51.4 89.5 53.4C88.7 55.4 87.6667 57.1333 86.4 58.6C85.1333 60.0667 83.7667 61.4333 82.3 62.7C80.9 63.9667 79.5667 65.2 78.3 66.4C77.0333 67.6 75.9667 68.8667 75.1 70.2C74.3 71.5333 73.9 73.1 73.9 74.9H58.8ZM66.4 100C63.6 100 61.3 99.1 59.5 97.3C57.7 95.5 56.8 93.3667 56.8 90.9C56.8 88.3667 57.7 86.2667 59.5 84.6C61.3 82.8667 63.6 82 66.4 82C69.2667 82 71.5667 82.8667 73.3 84.6C75.1 86.2667 76 88.3667 76 90.9C76 93.3667 75.1 95.5 73.3 97.3C71.5667 99.1 69.2667 100 66.4 100Z" fill="white"/>
</svg>
