<svg width="40" height="40" viewBox="0 0 40 40" fill="none" xmlns="http://www.w3.org/2000/svg">
<circle cx="20" cy="20" r="19" stroke="#879ABF" stroke-width="2"/>
<path d="M11.7648 17.4249C11.7633 16.4465 11.9798 15.4775 12.402 14.5737C12.8241 13.6699 13.4435 12.8493 14.2244 12.1591C15.0053 11.4689 15.9324 10.9228 16.9521 10.5522C17.9718 10.1817 19.064 9.99407 20.1656 10.0001C24.763 10.0305 28.4402 13.424 28.4402 17.5182V18.2499C28.4402 21.9434 29.3103 24.0866 30.0767 25.2581C30.1592 25.3833 30.2032 25.5256 30.2041 25.6706C30.2048 25.8157 30.1626 25.9584 30.0816 26.0843C30.0006 26.2103 29.8836 26.3151 29.7424 26.3879C29.6012 26.4609 29.4408 26.4996 29.2775 26.5H10.9265C10.7631 26.4996 10.6028 26.4609 10.4616 26.3879C10.3204 26.3149 10.2034 26.2103 10.1224 26.0842C10.0413 25.9583 9.99912 25.8156 10 25.6705C10.0009 25.5254 10.0449 25.3831 10.1275 25.2579C10.8943 24.0865 11.7648 21.9432 11.7648 18.2499V17.4249Z" stroke="#879ABF" stroke-width="2" stroke-linecap="round" stroke-linejoin="round"/>
<path d="M16.3867 26.5V27.325C16.3867 28.2002 16.7782 29.0395 17.4751 29.6585C18.1719 30.2773 19.1171 30.625 20.1026 30.625C21.0881 30.625 22.0333 30.2773 22.7302 29.6585C23.427 29.0395 23.8185 28.2002 23.8185 27.325V26.5" stroke="#879ABF" stroke-width="2" stroke-linecap="round" stroke-linejoin="round"/>
</svg>
