<svg width="32" height="32" viewBox="0 0 32 32" fill="none" xmlns="http://www.w3.org/2000/svg">
<path d="M16.5938 25.3426L23.3832 29.8161C24.251 30.3879 25.3286 29.5375 25.0711 28.4839L23.1094 20.4587C23.0542 20.2352 23.0607 20 23.1283 19.7802C23.1959 19.5603 23.3218 19.3648 23.4914 19.2161L29.5796 13.946C30.3797 13.2535 29.9667 11.8728 28.939 11.8034L20.988 11.2668C20.7739 11.2509 20.5685 11.172 20.3958 11.0394C20.223 10.9068 20.0901 10.7259 20.0123 10.5177L17.047 2.75145C16.9664 2.53055 16.8231 2.34032 16.6361 2.20606C16.4491 2.07189 16.2272 2 16 2C15.7728 2 15.5509 2.07189 15.364 2.20606C15.1769 2.34032 15.0336 2.53055 14.953 2.75145L11.9877 10.5177C11.91 10.7259 11.777 10.9068 11.6042 11.0394C11.4315 11.172 11.2261 11.2509 11.0119 11.2668L3.06104 11.8034C2.03329 11.8728 1.62034 13.2535 2.42029 13.946L8.50859 19.2161C8.67826 19.3648 8.80412 19.5603 8.87176 19.7802C8.93931 20 8.94584 20.2352 8.89059 20.4587L7.07144 27.9011C6.76236 29.1655 8.05538 30.186 9.09687 29.4998L15.4062 25.3426C15.5837 25.2251 15.7897 25.1627 16 25.1627C16.2103 25.1627 16.4163 25.2251 16.5938 25.3426Z" stroke="#2A488D" stroke-width="3" stroke-linecap="round" stroke-linejoin="round"/>
</svg>
