<svg width="13" height="13" viewBox="0 0 13 13" fill="none" xmlns="http://www.w3.org/2000/svg">
<path d="M12.8324 12.064L9.61236 8.84134C10.3742 7.90691 10.8335 6.71764 10.8335 5.41954C10.8335 2.43309 8.40451 0.00146484 5.41542 0.00146484C2.42632 0.00146484 0 2.43309 0 5.41954C0 8.40598 2.42897 10.835 5.41807 10.835C6.71352 10.835 7.90545 10.3757 8.83987 9.61383L12.0599 12.8339C12.2803 13.0542 12.6147 13.0542 12.8351 12.8339C13.0554 12.6135 13.0554 12.2844 12.8324 12.064ZM1.08043 5.41954C1.08043 3.02773 3.02361 1.08455 5.41542 1.08455C7.80723 1.08455 9.75306 3.03038 9.75306 5.42219C9.75306 7.814 7.80723 9.75983 5.41542 9.75983C3.02361 9.75983 1.08043 7.81134 1.08043 5.41954Z" fill="white"/>
</svg>
