<svg width="64" height="61" viewBox="0 0 64 61" fill="none" xmlns="http://www.w3.org/2000/svg">
<path d="M28.1598 2.43994C27.8592 2.4401 27.5685 2.54295 27.3394 2.73018C27.1103 2.9174 26.9578 3.17682 26.909 3.46217L25.6755 10.7274C24.1923 11.1424 22.778 11.7025 21.445 12.4001L15.2132 8.11818C14.9692 7.95057 14.6714 7.87153 14.3726 7.89509C14.0738 7.91864 13.7933 8.04327 13.581 8.24686L8.64703 12.9887C8.43618 13.1916 8.30645 13.4596 8.28063 13.7455C8.25481 14.0314 8.33455 14.3169 8.50585 14.5518L12.8899 20.5851C12.1536 21.8749 11.5585 23.2432 11.1165 24.6835L3.59669 25.8868C3.30098 25.9347 3.03249 26.0819 2.83887 26.3022C2.64525 26.5225 2.53903 26.8016 2.53906 27.0901V33.8001C2.53852 34.0869 2.64299 34.3647 2.83413 34.5847C3.02527 34.8048 3.29087 34.953 3.5843 35.0035L11.109 36.2854C11.5487 37.7232 12.14 39.0925 12.8775 40.3838L8.43897 46.3576C8.26475 46.5923 8.18259 46.8788 8.20707 47.1662C8.23156 47.4537 8.3611 47.7235 8.57272 47.9278L13.5042 52.6744C13.7147 52.877 13.9926 53.0019 14.2892 53.0271C14.5859 53.0524 14.8823 52.9764 15.1265 52.8126L21.4103 48.5807C22.7472 49.2824 24.165 49.8466 25.6532 50.2654L26.909 57.5401C26.9583 57.825 27.111 58.0839 27.3401 58.2706C27.5691 58.4574 27.8596 58.5599 28.1598 58.5599H35.1347C35.4331 58.5604 35.7222 58.4595 35.9509 58.2752C36.1797 58.0908 36.3336 57.8347 36.3855 57.552L37.7304 50.2487C39.2125 49.8235 40.6236 49.251 41.9535 48.545L48.2794 52.815C48.5236 52.9798 48.8204 53.0565 49.1176 53.0316C49.4147 53.0068 49.6933 52.882 49.9043 52.6792L54.8357 47.9302C55.0482 47.7253 55.1781 47.4544 55.2022 47.1659C55.2262 46.8774 55.1429 46.59 54.967 46.3552L50.4566 40.3314C51.1778 39.0582 51.7588 37.7088 52.1904 36.2926L59.8217 35.0058C60.1156 34.9559 60.3817 34.8079 60.5734 34.5878C60.765 34.3677 60.8698 34.0896 60.8694 33.8025V27.0925C60.8692 26.8033 60.7623 26.5236 60.5677 26.3032C60.3731 26.0828 60.1034 25.9361 59.8068 25.8892L52.1879 24.6906C51.7534 23.2761 51.1708 21.9291 50.4492 20.6565L54.8976 14.5589C55.0689 14.324 55.1487 14.0385 55.1229 13.7526C55.097 13.4668 54.9673 13.1988 54.7565 12.9958L49.8225 8.25162C49.6096 8.04717 49.328 7.92222 49.028 7.89908C48.7281 7.87595 48.4294 7.95614 48.1853 8.12533L41.9411 12.4454C40.6107 11.7422 39.1987 11.1727 37.7131 10.7512L36.3855 3.45025C36.3341 3.16709 36.1805 2.91046 35.9516 2.72563C35.7228 2.54079 35.4335 2.43962 35.1347 2.43994H28.1598ZM29.2397 4.87994H34.0696L35.3328 11.8163C35.3749 12.049 35.4862 12.2649 35.6532 12.4378C35.8203 12.6108 36.036 12.7335 36.274 12.7909C38.1287 13.2355 39.8707 13.9403 41.4606 14.8663C41.6732 14.9902 41.9189 15.0513 42.1673 15.042C42.4156 15.0327 42.6557 14.9533 42.8576 14.8139L48.7922 10.7107L52.2078 13.9966L47.9822 19.7892C47.8411 19.9824 47.7613 20.2109 47.7525 20.4469C47.7437 20.683 47.8063 20.9163 47.9327 21.1188C48.8857 22.6449 49.6085 24.3101 50.0702 26.0846C50.1303 26.3157 50.2595 26.5248 50.4417 26.6861C50.6239 26.8475 50.8513 26.954 51.0956 26.9924L58.3331 28.1314V32.7779L51.0808 34.0027C50.8388 34.0439 50.6144 34.1519 50.435 34.3134C50.2556 34.475 50.1289 34.6833 50.0702 34.9129C49.6138 36.6851 48.8906 38.3503 47.9376 39.8763C47.8097 40.0808 47.7469 40.3168 47.7571 40.5553C47.7672 40.7937 47.8498 41.0241 47.9946 41.2178L52.2796 46.939L48.864 50.2272L42.8526 46.1693C42.6508 46.0333 42.4121 45.9568 42.1657 45.9492C41.9194 45.9416 41.6761 46.0031 41.4656 46.1264C39.8835 47.0524 38.1398 47.7605 36.2914 48.2114C36.0544 48.2689 35.8398 48.3909 35.6732 48.563C35.5067 48.735 35.3954 48.9497 35.3527 49.1812L34.0721 56.1199H29.2348L28.0409 49.2122C28.0003 48.9772 27.889 48.7588 27.7209 48.5839C27.5528 48.409 27.3351 48.2853 27.0948 48.2281C25.239 47.788 23.4892 47.0843 21.8884 46.1598C21.6782 46.0387 21.4361 45.9788 21.1912 45.9872C20.9464 45.9957 20.7094 46.0722 20.5088 46.2074L14.5445 50.2272L11.1264 46.9342L15.342 41.2655C15.4861 41.0713 15.5678 40.8407 15.577 40.6022C15.5863 40.3638 15.5227 40.128 15.394 39.924C14.4226 38.3797 13.6879 36.6966 13.2243 34.9034C13.165 34.675 13.0382 34.468 12.8594 34.3073C12.6805 34.1466 12.4571 34.0392 12.2162 33.9979L5.07538 32.7779V28.1243L12.2112 26.9829C12.4552 26.944 12.682 26.8373 12.8637 26.676C13.0455 26.5147 13.1742 26.3058 13.2342 26.0751C13.7018 24.2757 14.4361 22.5928 15.4039 21.0521C15.5316 20.8498 15.5953 20.6162 15.5874 20.3797C15.5795 20.1432 15.5002 19.9141 15.3593 19.7201L11.1933 13.9918L14.6138 10.7035L20.5261 14.7686C20.7272 14.9066 20.9659 14.985 21.2127 14.9944C21.4596 15.0037 21.7039 14.9434 21.9156 14.821C23.508 13.901 25.2618 13.2029 27.1195 12.7647C27.361 12.7075 27.5797 12.5832 27.7484 12.4074C27.917 12.2316 28.0282 12.012 28.0682 11.7758L29.2397 4.87994ZM31.7042 20.7399C26.1162 20.7399 21.559 25.1241 21.559 30.4999C21.559 35.8758 26.1162 40.2599 31.7042 40.2599C37.2923 40.2599 41.8495 35.8758 41.8495 30.4999C41.8495 25.1241 37.2923 20.7399 31.7042 20.7399ZM31.7042 23.1799C35.9215 23.1799 39.3132 26.4428 39.3132 30.4999C39.3132 34.5571 35.9215 37.8199 31.7042 37.8199C27.4869 37.8199 24.0953 34.5571 24.0953 30.4999C24.0953 26.4428 27.4869 23.1799 31.7042 23.1799Z" fill="#2F4C90"/>
</svg>
