<svg width="70" height="71" viewBox="0 0 70 71" fill="none" xmlns="http://www.w3.org/2000/svg">
<path d="M54.9267 70.4506H15.0733C6.75111 70.4506 0 63.656 0 55.2802V15.1704C0 6.79456 6.75111 0 15.0733 0H54.9267C63.2489 0 70 6.79456 70 15.1704V55.2802C70 63.656 63.2489 70.4506 54.9267 70.4506Z" fill="white"/>
<path d="M16.1825 34.145L39.7492 24.3758C42.0748 23.3582 49.9614 20.1018 49.9614 20.1018C49.9614 20.1018 53.6014 18.6772 53.2981 22.1371C53.197 23.5618 52.3881 28.5481 51.5792 33.9493L49.0514 49.9338C49.0514 49.9338 48.8492 52.2743 47.1303 52.6813C45.4114 53.0884 42.5803 51.2567 42.0748 50.8496C41.6703 50.5443 34.4914 45.965 31.8625 43.7263C31.1548 43.1157 30.3459 41.8946 31.9636 40.4699C35.6036 37.1117 39.9514 32.9395 42.5803 30.2937C43.7936 29.0726 45.007 26.2232 39.9514 29.6831L25.687 39.3349C25.687 39.3349 24.0692 40.3525 21.0359 39.4366C18.0025 38.5208 14.4637 37.2996 14.4637 37.2996C14.4637 37.2996 12.037 35.7732 16.1825 34.145Z" fill="#2A488D" fill-opacity="0.95"/>
</svg>
