<svg width="28" height="28" viewBox="0 0 28 28" fill="none" xmlns="http://www.w3.org/2000/svg">
<path fill-rule="evenodd" clip-rule="evenodd" d="M14 28C6.26802 28 0 21.7319 0 14C0 6.26802 6.26802 0 14 0C21.7319 0 28 6.26802 28 14C28 21.7319 21.7319 28 14 28ZM23.4175 20.5222C24.7019 18.6713 25.4545 16.4235 25.4545 14C25.4545 7.67383 20.3262 2.54545 14 2.54545C7.67383 2.54545 2.54545 7.67383 2.54545 14C2.54545 16.4235 3.29812 18.6713 4.58245 20.5222C6.01485 18.6303 9.38076 17.8182 14 17.8182C18.6192 17.8182 21.9851 18.6303 23.4175 20.5222ZM21.5914 22.5779C21.2189 21.2385 18.5429 20.3636 14 20.3636C9.45715 20.3636 6.78109 21.2385 6.40859 22.5779C8.42965 24.3679 11.0879 25.4545 14 25.4545C16.9121 25.4545 19.5703 24.3679 21.5914 22.5779ZM14 17.8182C11.1502 17.8182 8.90909 15.8167 8.90909 11.4545C8.90909 8.59824 10.9189 6.36364 14 6.36364C17.0726 6.36364 19.0909 8.80928 19.0909 11.7091C19.0909 15.8831 16.823 17.8182 14 17.8182ZM11.4545 11.4545C11.4545 14.3427 12.4959 15.2727 14 15.2727C15.4989 15.2727 16.5455 14.3798 16.5455 11.7091C16.5455 10.1187 15.5473 8.90909 14 8.90909C12.3884 8.90909 11.4545 9.94741 11.4545 11.4545Z" fill="#2A488D"/>
</svg>
