<svg width="103" height="100" viewBox="0 0 103 100" fill="none" xmlns="http://www.w3.org/2000/svg">
<path d="M103 50C103 22.3858 79.9427 0 51.5 0C23.0573 0 0 22.3858 0 50C0 77.6142 23.0573 100 51.5 100C79.9427 100 103 77.6142 103 50Z" fill="#879ABF"/>
<path d="M53.7746 66.8836L68.3316 75.8998C70.1924 77.0522 72.5027 75.3382 71.9506 73.2148L67.7447 57.0404C67.6263 56.59 67.6403 56.116 67.7851 55.673C67.9301 55.2298 68.2 54.8358 68.5638 54.536L81.6174 43.9144C83.3327 42.5188 82.4474 39.736 80.2438 39.5962L63.1962 38.5146C62.7371 38.4826 62.2968 38.3236 61.9265 38.0564C61.5561 37.789 61.271 37.4244 61.1043 37.0048L54.7463 21.3524C54.5735 20.9072 54.2663 20.5238 53.8653 20.2532C53.4644 19.9828 52.9887 19.8379 52.5015 19.8379C52.0144 19.8379 51.5387 19.9828 51.1378 20.2532C50.7367 20.5238 50.4294 20.9072 50.2566 21.3524L43.8988 37.0048C43.7321 37.4244 43.447 37.789 43.0766 38.0564C42.7062 38.3236 42.2658 38.4826 41.8066 38.5146L24.7593 39.5962C22.5557 39.736 21.6704 42.5188 23.3855 43.9144L36.4393 54.536C36.8031 54.8358 37.073 55.2298 37.218 55.673C37.3628 56.116 37.3768 56.59 37.2584 57.0404L33.358 72.0402C32.6953 74.5884 35.4676 76.6452 37.7007 75.2622L51.2285 66.8836C51.609 66.6468 52.0506 66.521 52.5015 66.521C52.9525 66.521 53.3941 66.6468 53.7746 66.8836Z" stroke="#304D91" stroke-width="5" stroke-linecap="round" stroke-linejoin="round"/>
</svg>
