<svg width="26" height="26" viewBox="0 0 26 26" fill="none" xmlns="http://www.w3.org/2000/svg">
<path fill-rule="evenodd" clip-rule="evenodd" d="M13 26C5.8203 26 0 20.1797 0 13C0 5.8203 5.8203 0 13 0C20.1797 0 26 5.8203 26 13C26 20.1797 20.1797 26 13 26ZM21.7449 19.0563C22.9374 17.3376 23.6364 15.2504 23.6364 13C23.6364 7.1257 18.8743 2.36364 13 2.36364C7.1257 2.36364 2.36364 7.1257 2.36364 13C2.36364 15.2504 3.06254 17.3376 4.25514 19.0563C5.58521 17.2996 8.71071 16.5455 13 16.5455C17.2893 16.5455 20.4147 17.2996 21.7449 19.0563ZM20.0492 20.9652C19.7033 19.7215 17.2184 18.9091 13 18.9091C8.78164 18.9091 6.29673 19.7215 5.95083 20.9652C7.82754 22.6273 10.2959 23.6364 13 23.6364C15.7041 23.6364 18.1725 22.6273 20.0492 20.9652ZM13 16.5455C10.3537 16.5455 8.27273 14.6869 8.27273 10.6364C8.27273 7.98408 10.1389 5.90909 13 5.90909C15.8531 5.90909 17.7273 8.18005 17.7273 10.8727C17.7273 14.7486 15.6214 16.5455 13 16.5455ZM10.6364 10.6364C10.6364 13.3183 11.6033 14.1818 13 14.1818C14.3918 14.1818 15.3636 13.3527 15.3636 10.8727C15.3636 9.39595 14.4367 8.27273 13 8.27273C11.5035 8.27273 10.6364 9.23688 10.6364 10.6364Z" fill="#2A488D"/>
</svg>
