<svg width="70" height="70" viewBox="0 0 70 70" fill="none" xmlns="http://www.w3.org/2000/svg">
<rect width="70" height="70" rx="18" fill="white"/>
<path d="M36.537 47.5685C37.1055 47.4867 38.1289 47.3232 38.1289 46.3421C38.1289 46.3421 38.0152 43.8894 39.6071 43.5624C41.1991 43.2354 43.2458 45.9333 45.4063 46.9962C46.9983 47.732 48.2491 47.6503 48.2491 47.6503L54.0483 47.5685C54.0483 47.5685 57.0047 47.405 55.6402 45.6881C55.5265 45.5246 54.6168 44.4617 51.2055 42.2543C47.6805 39.8015 48.2491 40.2103 52.4563 36.0407C55.0717 33.5062 56.2088 31.9528 55.8676 31.3805C55.4128 30.8082 53.5934 30.89 53.5934 30.89H47.112C46.4297 30.89 46.0886 30.9717 45.7475 31.3805C45.7475 31.3805 44.7241 33.4245 43.3596 35.0596C40.5168 38.5752 39.3797 38.7387 38.8112 38.4934C37.7878 38.0846 38.0152 36.5312 38.0152 35.4684C38.0152 31.7893 38.8112 30.4812 36.537 30.1542C35.0587 29.9906 29.8281 29.8271 28.2362 30.3994C27.4402 30.7265 26.9854 31.2988 27.3265 31.3805C27.6676 31.3805 28.691 31.4623 29.2595 31.9528C30.1692 33.0157 30.2829 38.0846 29.0321 38.5752C27.3265 39.4745 23.0055 33.5062 21.9821 31.544C21.7547 31.0535 21.4136 30.9717 20.6176 30.8082H14.3636C13.6813 30.8082 12.6579 30.89 13.1128 31.8711C16.1829 36.4495 22.5507 47.6503 34.0354 47.5685H36.537Z" fill="#2A488D"/>
</svg>
